<svg xmlns="http://www.w3.org/2000/svg" width="100" height="100" viewBox="0 0 64 64">

  <!-- turbo  size 84, garden 64  so .761-->
  <g fill="none" transform="scale(.761)">

    <rect width="84" height="84" rx="42" fill="white"/>
    <path d="M41.8878 27.9263C34.1892 27.9263 27.9258 34.1897 27.9258 41.8883C27.9258 49.5869 34.1892 55.8503 41.8878 55.8503C49.5864 55.8503 55.8498 49.5869 55.8498 41.8883C55.8498 34.1897 49.5864 27.9263 41.8878 27.9263ZM41.8878 49.1137C37.8968 49.1137 34.6624 45.8793 34.6624 41.8883C34.6624 37.8973 37.8968 34.6629 41.8878 34.6629C45.8788 34.6629 49.1132 37.8973 49.1132 41.8883C49.1132 45.8793 45.8788 49.1137 41.8878 49.1137Z" fill="black"/>
    <path fill-rule="evenodd" clip-rule="evenodd" d="M43.0581 25.6329V20.4199C54.3889 21.0257 63.3901 30.4065 63.3901 41.8881C63.3901 53.3697 54.3889 62.7479 43.0581 63.3563V58.1433C51.5029 57.5401 58.1901 50.4837 58.1901 41.8881C58.1901 33.2925 51.5029 26.2361 43.0581 25.6329ZM29.5745 52.5481C27.3359 49.9637 25.8929 46.6721 25.6355 43.0581H20.4199C20.6903 48.1151 22.7131 52.7041 25.8825 56.2375L29.5719 52.5481H29.5745ZM40.7182 63.3563V58.1433C37.1016 57.8859 33.81 56.4455 31.2256 54.2043L27.5362 57.8937C31.0722 61.0657 35.6612 63.0859 40.7156 63.3563H40.7182Z" fill="url(#paint0_linear_967_9048)"/>
    <rect x="0.5" y="0.5" width="83" height="83" rx="41.5" stroke="url(#paint1_radial_967_9048)" stroke-opacity="0.15"/>
    <rect x="0.5" y="0.5" width="83" height="83" rx="41.5" stroke="url(#paint2_linear_967_9048)" stroke-opacity="0.5"/>
    <defs>
      <linearGradient id="paint0_linear_967_9048" x1="43.9007" y1="23.4388" x2="22.7679" y2="44.5716" gradientUnits="userSpaceOnUse">
        <stop stop-color="#0096FF"/>
        <stop offset="1" stop-color="#FF1E56"/>
      </linearGradient>
      <radialGradient id="paint1_radial_967_9048" cx="0" cy="0" r="1" gradientUnits="userSpaceOnUse" gradientTransform="translate(42) rotate(90) scale(108)">
        <stop/>
        <stop offset="1"/>
      </radialGradient>
      <linearGradient id="paint2_linear_967_9048" x1="0" y1="0" x2="18.375" y2="34.125" gradientUnits="userSpaceOnUse">
        <stop/>
        <stop offset="1" stop-opacity="0"/>
      </linearGradient>
    </defs>

  </g>

  <g>
    <circle cx="32" cy="32" r="25" stroke="grey" stroke-width="1" fill="none" />
    <g fill="#83bf4f">
      <path d="M48.5,38.4c-8,0-10.1-6.6-10.1-6.6s2.1-8.3,10.1-8.3C54,23.5,63,31,63,31S54,38.4,48.5,38.4z"/>
      <path d="M18,6.7c6.3,6.4,2.6,13.6,2.6,13.6s-7.7,4.4-14-2C2.3,13.9,1,1,1,1S13.7,2.3,18,6.7z"/>
    </g>
    <g fill="#75a843">
      <path d="m63 31c-5-1-10.1-1.6-15.1-1-4.9.5-9.9 2.3-13.2 5.7-1.7 1.7-2.9 3.7-3.5 5.9-.1.5-.2 1.1-.3 1.6-.1.6 0 1 0 1.7l.2 3.8.7 15.3h-5l.8-15.3.2-3.8c0-.6.1-1.4.2-2.1.1-.7.3-1.4.5-2.1.9-2.7 2.6-5 4.7-6.7 2.1-1.8 4.5-3 7-3.9 2.5-.8 5.1-1.2 7.7-1.3 5.1-.2 10.2.8 15.1 2.2"/>
      <path d="m1 1c5.2 3.2 10 7.2 14.2 11.7 4.2 4.5 8 9.4 11.1 14.8 1.5 2.7 3 5.5 3.9 8.7.2.8.4 1.6.5 2.5l.1 2.4.2 4.6.8 18.3h-5l.8-18.4.2-4.6.1-1.1c0-.4 0-.8 0-1.1 0-.6-.1-1.3-.3-2-.6-2.8-1.8-5.6-3.2-8.3-2.7-5.4-6.2-10.4-10.1-15.1-3.8-4.7-8.2-8.9-13.3-12.4"/>
    </g>
  </g>

</svg>
